<?xml version="1.0" encoding="utf-8"?>
<svg viewBox="83.152 117.319 627.191 238.511" width="627.191px" height="238.511px" xmlns="http://www.w3.org/2000/svg" xmlns:bx="https://boxy-svg.com">
  <ellipse style="stroke: rgb(0, 0, 0); fill: rgb(255, 204, 0);" cx="393.395" cy="180.199" rx="39.069" ry="39.17" transform="matrix(0.9999999999999999, 0, 0, 0.9999999999999999, -3.552713678800501e-15, 0)"/>
  <text style="fill: rgb(51, 51, 51); font-family: Arial, sans-serif; font-size: 54px; white-space: pre;" x="371.697" y="258.795" dx="6.527" dy="-63.231" transform="matrix(0.9999999999999999, 0, 0, 0.9999999999999999, -3.552713678800501e-15, 0)">b</text>
  <ellipse style="stroke: rgb(0, 0, 0); fill: rgb(255, 204, 0);" cx="152.989" cy="239.187" rx="39.069" ry="39.17" transform="matrix(0.9999999999999999, 0, 0, 0.9999999999999999, -3.552713678800501e-15, 0)"/>
  <text style="fill: rgb(51, 51, 51); font-family: Arial, sans-serif; font-size: 54px; white-space: pre;" x="133.25" y="316.153" dx="6.527" dy="-63.231" transform="matrix(0.9999999999999999, 0, 0, 0.9999999999999999, -3.552713678800501e-15, 0)">a</text>
  <path d="M 196.42 254.391 H 312.89 L 312.89 241.806 L 352.89 261.806 L 312.89 281.806 L 312.89 269.222 H 196.42 V 254.391 Z" style="stroke: rgb(0, 0, 0);" transform="matrix(0.9661170244216918, 0.25810492038726807, -0.25810492038726807, 0.9661170244216918, 75.8042526245117, -55.36268615722656)" bx:shape="arrow 196.42 241.806 156.47 40 14.831 40 0 1@3fa6651d"/>
  <ellipse style="stroke: rgb(0, 0, 0); fill: rgb(255, 204, 0);" cx="393.395" cy="293.595" rx="39.069" ry="39.17" transform="matrix(0.9999999999999999, 0, 0, 0.9999999999999999, -3.552713678800501e-15, 0)"/>
  <text style="fill: rgb(51, 51, 51); font-family: Arial, sans-serif; font-size: 54px; white-space: pre;" x="371.697" y="375.526" dx="6.527" dy="-63.231" transform="matrix(0.9999999999999999, 0, 0, 0.9999999999999999, -3.552713678800501e-15, 0)">c</text>
  <path d="M 196.422 254.393 H 310.937 L 310.937 241.808 L 350.937 261.808 L 310.937 281.808 L 310.937 269.224 H 196.422 V 254.393 Z" style="stroke: rgb(0, 0, 0);" transform="matrix(0.9694790244102477, -0.24517603218555448, 0.24517603218555448, 0.9694790244102477, -56.87910842895508, 23.205068588256836)" bx:shape="arrow 196.422 241.808 154.515 40 14.831 40 0 1@7034c41f"/>
  <path d="M 196.42 254.391 H 312.89 L 312.89 241.806 L 352.89 261.806 L 312.89 281.806 L 312.89 269.222 H 196.42 V 254.391 Z" style="stroke: rgb(0, 0, 0);" transform="matrix(0.9661170244216918, 0.25810497999191284, -0.25810497999191284, 0.9661170244216918, 324.4012451171875, -120.2439727783203)" bx:shape="arrow 196.42 241.806 156.47 40 14.831 40 0 1@3fa6651d"/>
  <path d="M 196.422 254.393 H 310.937 L 310.937 241.808 L 350.937 261.808 L 310.937 281.808 L 310.937 269.224 H 196.422 V 254.393 Z" style="stroke: rgb(0, 0, 0);" transform="matrix(0.9694790244102477, -0.24517601728439328, 0.24517601728439328, 0.9694790244102477, 193.60433959960935, 88.1558837890625)" bx:shape="arrow 196.422 241.808 154.515 40 14.831 40 0 1@7034c41f"/>
  <ellipse style="stroke: rgb(0, 0, 0); fill: rgb(255, 204, 0);" cx="641.992" cy="239.187" rx="39.069" ry="39.17" transform="matrix(0.9999999999999999, 0, 0, 0.9999999999999999, -3.552713678800501e-15, 0)"/>
  <text style="fill: rgb(51, 51, 51); font-family: Arial, sans-serif; font-size: 54px; white-space: pre;" x="621.384" y="318.987" dx="6.527" dy="-63.231" transform="matrix(0.9999999999999999, 0, 0, 0.9999999999999999, -3.552713678800501e-15, 0)">d</text>
</svg>