<?xml version="1.0" encoding="utf-8"?>
<svg viewBox="83.152 117.319 627.191 238.511" width="627.191px" height="238.511px" xmlns="http://www.w3.org/2000/svg" xmlns:bx="https://boxy-svg.com">
  <ellipse style="stroke: rgb(0, 0, 0); fill: rgb(255, 204, 0);" cx="393.395" cy="180.199" rx="39.069" ry="39.17"/>
  <text style="fill: rgb(51, 51, 51); font-family: Arial, sans-serif; font-size: 54px; white-space: pre;" x="371.697" y="258.795" dx="6.527" dy="-63.231">b</text>
  <ellipse style="stroke: rgb(0, 0, 0); fill: rgb(255, 204, 0);" cx="152.989" cy="239.187" rx="39.069" ry="39.17"/>
  <text style="fill: rgb(51, 51, 51); font-family: Arial, sans-serif; font-size: 54px; white-space: pre;" x="133.25" y="316.153" dx="6.527" dy="-63.231">a</text>
  <path d="M -196.42 -229.222 H -79.95 L -79.95 -241.806 L -39.95 -221.806 L -79.95 -201.806 L -79.95 -214.391 H -196.42 V -229.222 Z" style="stroke: rgb(0, 0, 0); fill: rgb(0, 162, 255);" transform="matrix(-0.9661170244216919, -0.25810497999191284, 0.25810497999191284, -0.9661170244216919, 216.6483612060547, 23.667633056640625)" bx:shape="arrow -196.42 -241.806 156.47 40 14.831 40 0 1@a64b927a"/>
  <ellipse style="stroke: rgb(0, 0, 0); fill: rgb(255, 204, 0);" cx="393.395" cy="293.595" rx="39.069" ry="39.17"/>
  <text style="fill: rgb(51, 51, 51); font-family: Arial, sans-serif; font-size: 54px; white-space: pre;" x="371.697" y="375.526" dx="6.527" dy="-63.231">c</text>
  <path d="M -196.422 -229.224 H -81.907 L -81.907 -241.808 L -41.907 -221.808 L -81.907 -201.808 L -81.907 -214.393 H -196.422 V -229.224 Z" style="stroke: rgb(0, 0, 0); fill: rgb(0, 162, 255);" transform="matrix(-0.9694790244102478, 0.2451760172843933, -0.2451760172843933, -0.9694790244102478, 102.72886657714844, 24.100854873657227)" bx:shape="arrow -196.422 -241.808 154.515 40 14.831 40 0 1@e71a5fa3"/>
  <path d="M -196.42 -229.222 H -79.95 L -79.95 -241.806 L -39.95 -221.806 L -79.95 -201.806 L -79.95 -214.391 H -196.42 V -229.222 Z" style="stroke: rgb(0, 0, 0); fill: rgb(0, 162, 255);" transform="matrix(-0.9661170244216919, -0.25810497999191284, 0.25810497999191284, -0.9661170244216919, 465.24530029296875, -41.213623046875)" bx:shape="arrow -196.42 -241.806 156.47 40 14.831 40 0 1@a64b927a"/>
  <path d="M -196.422 -229.224 H -81.907 L -81.907 -241.808 L -41.907 -221.808 L -81.907 -201.808 L -81.907 -214.393 H -196.422 V -229.224 Z" style="stroke: rgb(0, 0, 0); fill: rgb(0, 162, 255);" transform="matrix(-0.9694790244102478, 0.2451760172843933, -0.2451760172843933, -0.9694790244102478, 353.21240234375, 89.05162811279297)" bx:shape="arrow -196.422 -241.808 154.515 40 14.831 40 0 1@e71a5fa3"/>
  <ellipse style="stroke: rgb(0, 0, 0); fill: rgb(255, 204, 0);" cx="641.992" cy="239.187" rx="39.069" ry="39.17"/>
  <text style="fill: rgb(51, 51, 51); font-family: Arial, sans-serif; font-size: 54px; white-space: pre;" x="621.384" y="318.987" dx="6.527" dy="-63.231">d</text>
</svg>