<?xml version="1.0" encoding="utf-8"?>
<svg viewBox="83.152 117.319 917.765 441.867" width="495.391px" height="238.511px" xmlns="http://www.w3.org/2000/svg" xmlns:bx="https://boxy-svg.com">
  <ellipse style="stroke: rgb(0, 0, 0); fill: rgb(255, 204, 0);" cx="356.622" cy="306.622" rx="39.069" ry="39.17"/>
  <text style="fill: rgb(51, 51, 51); font-family: Arial, sans-serif; font-size: 54px; white-space: pre;" x="334.924" y="385.218" dx="6.527" dy="-63.231">b</text>
  <ellipse style="stroke: rgb(0, 0, 0); fill: rgb(255, 204, 0);" cx="152.989" cy="239.187" rx="39.069" ry="39.17"/>
  <text style="fill: rgb(51, 51, 51); font-family: Arial, sans-serif; font-size: 54px; white-space: pre;" x="133.25" y="316.153" dx="6.527" dy="-63.231">a</text>
  <path d="M 192.88 254.398 H 270.172 L 270.172 241.813 L 310.173 261.813 L 270.172 281.813 L 270.172 269.229 H 192.88 V 254.398 Z" style="stroke: rgb(0, 0, 0);" transform="matrix(0.9427469968795776, 0.33350899815559387, -0.33350899815559387, 0.9427469968795776, 100.57678985595703, -51.70542907714844)" bx:shape="arrow 192.88 241.813 117.293 40 14.831 40 0 1@873301ba"/>
  <ellipse style="stroke: rgb(0, 0, 0); fill: rgb(255, 204, 0);" cx="447.166" cy="430.923" rx="39.069" ry="39.17"/>
  <text style="fill: rgb(51, 51, 51); font-family: Arial, sans-serif; font-size: 54px; white-space: pre;" x="425.468" y="512.854" dx="6.527" dy="-63.231">c</text>
  <path d="M 196.422 254.393 H 359.641 L 359.641 241.808 L 399.641 261.808 L 359.641 281.808 L 359.641 269.224 H 196.422 V 254.393 Z" style="stroke: rgb(0, 0, 0);" transform="matrix(0.9782600402832031, -0.20738300681114197, 0.20738300681114197, 0.9782600402832031, 157.67544555664062, 94.21443176269531)" bx:shape="arrow 196.422 241.808 203.219 40 14.831 40 0 1@41bbcd2a"/>
  <path d="M 196.419 254.39 H 551.893 L 551.893 241.805 L 591.893 261.805 L 551.893 281.805 L 551.893 269.221 H 196.419 V 254.39 Z" style="stroke: rgb(0, 0, 0);" transform="matrix(0.9995729923248291, -0.02921600267291069, 0.02921600267291069, 0.9995729923248291, -2.914419174194336, -16.508756637573242)" bx:shape="arrow 196.419 241.805 395.474 40 14.831 40 0 1@58065b09"/>
  <path d="M 196.422 254.394 H 410.229 L 410.229 241.809 L 450.229 261.809 L 410.229 281.809 L 410.229 269.225 H 196.422 V 254.394 Z" style="stroke: rgb(0, 0, 0);" transform="matrix(0.8467469811439514, 0.531995952129364, -0.531995952129364, 0.8467469811439514, 153.74301147460938, -45.015995025634766)" bx:shape="arrow 196.422 241.809 253.806 40 14.831 40 0 1@2db405b2"/>
  <ellipse style="stroke: rgb(0, 0, 0); fill: rgb(255, 204, 0);" cx="641.992" cy="239.187" rx="39.069" ry="39.17"/>
  <text style="fill: rgb(51, 51, 51); font-family: Arial, sans-serif; font-size: 54px; white-space: pre;" x="621.384" y="318.987" dx="6.527" dy="-63.231">d</text>
  <path d="M 196.422 254.393 H 216.35 L 216.35 241.808 L 256.35 261.808 L 216.35 281.808 L 216.35 269.224 H 196.422 V 254.393 Z" style="stroke: rgb(0, 0, 0);" transform="matrix(0.5956910252571106, 0.8032140135765076, -0.8032140135765076, 0.5956910252571106, 478.5843811035156, 29.892404556274414)" bx:shape="arrow 196.422 241.808 59.928 40 14.831 40 0 1@edce132d"/>
  <path d="M 192.681 254.393 H 328.619 L 328.619 241.808 L 368.619 261.808 L 328.619 281.808 L 328.619 269.224 H 192.681 V 254.393 Z" style="stroke: rgb(0, 0, 0);" transform="matrix(0.7574400305747986, -0.6529049873352051, 0.6529049873352051, 0.7574400305747986, 169.35513305664062, 331.16485595703125)" bx:shape="arrow 192.681 241.808 175.938 40 14.831 40 0 1@d1791f0a"/>
</svg>