<?xml version="1.0" encoding="utf-8"?>
<svg viewBox="83.152 117.319 377.529 240.12" width="377.529px" height="240.12px" xmlns="http://www.w3.org/2000/svg" xmlns:bx="https://boxy-svg.com">
  <ellipse style="stroke: rgb(0, 0, 0); fill: rgb(255, 97, 97);" cx="146.014" cy="179.284" rx="39.069" ry="39.17" transform="matrix(0.9999999999999999, 0, 0, 0.9999999999999999, 0, 1.7763568394002505e-15)"/>
  <text style="fill: rgb(51, 51, 51); font-family: Arial, sans-serif; font-size: 54px; white-space: pre;" x="124.316" y="257.88" dx="6.527" dy="-63.231" transform="matrix(0.9999999999999999, 0, 0, 0.9999999999999999, 0, 1.7763568394002505e-15)">a</text>
  <ellipse style="stroke: rgb(0, 0, 0); fill: rgb(255, 173, 59);" cx="393.395" cy="237.238" rx="39.069" ry="39.17" transform="matrix(0.9999999999999999, 0, 0, 0.9999999999999999, 0, 1.7763568394002505e-15)"/>
  <text style="fill: rgb(51, 51, 51); font-family: Arial, sans-serif; font-size: 54px; white-space: pre;" x="373.656" y="314.204" dx="6.527" dy="-63.231" transform="matrix(0.9999999999999999, 0, 0, 0.9999999999999999, 0, 1.7763568394002505e-15)">c</text>
  <path d="M 196.42 254.391 H 312.89 L 312.89 241.806 L 352.89 261.806 L 312.89 281.806 L 312.89 269.222 H 196.42 V 254.391 Z" style="stroke: rgb(0, 0, 0); fill: rgb(85, 113, 255);" transform="matrix(0.9661170244216918, 0.25810492038726807, -0.25810492038726807, 0.9661170244216918, 74.76958465576172, -125.563720703125)" bx:shape="arrow 196.42 241.806 156.47 40 14.831 40 0 1@3fa6651d"/>
  <ellipse style="stroke: rgb(0, 0, 0); fill: rgb(28, 189, 0);" cx="146.014" cy="292.68" rx="39.069" ry="39.17" transform="matrix(0.9999999999999999, 0, 0, 0.9999999999999999, 0, 1.7763568394002505e-15)"/>
  <text style="fill: rgb(51, 51, 51); font-family: Arial, sans-serif; font-size: 54px; white-space: pre;" x="124.316" y="374.611" dx="6.527" dy="-63.231" transform="matrix(0.9999999999999999, 0, 0, 0.9999999999999999, 0, 1.7763568394002505e-15)">b</text>
  <path d="M 196.422 254.393 H 310.936 L 310.936 241.808 L 350.937 261.808 L 310.936 281.808 L 310.936 269.224 H 196.422 V 254.393 Z" style="stroke: rgb(0, 0, 0); fill: rgb(85, 113, 255);" transform="matrix(0.9694790244102477, -0.24517603218555448, 0.24517603218555448, 0.9694790244102477, -57.65481185913085, 85.73341369628905)" bx:shape="arrow 196.422 241.808 154.515 40 14.831 40 0 1@a92d5063"/>
</svg>