<?xml version="1.0" encoding="utf-8"?>
<svg viewBox="83.152 117.319 377.529 240.12" width="377.529px" height="240.12px" xmlns="http://www.w3.org/2000/svg" xmlns:bx="https://boxy-svg.com">
  <ellipse style="stroke: rgb(0, 0, 0); fill: rgb(255, 204, 0);" cx="146.014" cy="179.284" rx="39.069" ry="39.17" transform="matrix(1, 0, 0, 1, 0, -1.4210854715202004e-14)"/>
  <text style="fill: rgb(51, 51, 51); font-family: Arial, sans-serif; font-size: 54px; white-space: pre;" x="124.316" y="257.88" dx="6.527" dy="-63.231" transform="matrix(1, 0, 0, 1, 0, -1.4210854715202004e-14)">a</text>
  <ellipse style="stroke: rgb(0, 0, 0); fill: rgb(255, 204, 0);" cx="393.395" cy="237.238" rx="39.069" ry="39.17" transform="matrix(1, 0, 0, 1, 0, -1.4210854715202004e-14)"/>
  <text style="fill: rgb(51, 51, 51); font-family: Arial, sans-serif; font-size: 54px; white-space: pre;" x="373.656" y="314.204" dx="6.527" dy="-63.231" transform="matrix(1, 0, 0, 1, 0, -1.4210854715202004e-14)">c</text>
  <path d="M -196.42 -229.222 H -79.95 L -79.95 -241.806 L -39.95 -221.806 L -79.95 -201.806 L -79.95 -214.391 H -196.42 V -229.222 Z" style="stroke: rgb(0, 0, 0); fill: rgb(0, 162, 255);" transform="matrix(-0.9661170244216919, -0.25810497999191284, 0.25810497999191284, -0.9661170244216919, 215.61366271972656, -46.533416748046875)" bx:shape="arrow -196.42 -241.806 156.47 40 14.831 40 0 1@a64b927a"/>
  <ellipse style="stroke: rgb(0, 0, 0); fill: rgb(255, 204, 0);" cx="146.014" cy="292.68" rx="39.069" ry="39.17" transform="matrix(1, 0, 0, 1, 0, -1.4210854715202004e-14)"/>
  <text style="fill: rgb(51, 51, 51); font-family: Arial, sans-serif; font-size: 54px; white-space: pre;" x="124.316" y="374.611" dx="6.527" dy="-63.231" transform="matrix(1, 0, 0, 1, 0, -1.4210854715202004e-14)">b</text>
  <path d="M -196.422 -229.224 H -81.907 L -81.907 -241.808 L -41.907 -221.808 L -81.907 -201.808 L -81.907 -214.393 H -196.422 V -229.224 Z" style="stroke: rgb(0, 0, 0); fill: rgb(0, 162, 255);" transform="matrix(-0.9694790244102478, 0.2451760172843933, -0.2451760172843933, -0.9694790244102478, 101.95320129394531, 86.62920379638672)" bx:shape="arrow -196.422 -241.808 154.515 40 14.831 40 0 1@e71a5fa3"/>
</svg>